<svg width="24" height="25" viewBox="0 0 24 25" fill="none" xmlns="http://www.w3.org/2000/svg">
<g clip-path="url(#clip0_5951_2643)">
<path d="M17.94 18.5415C16.2306 19.8445 14.1491 20.5663 12 20.6015C5 20.6015 1 12.6015 1 12.6015C2.24389 10.2834 3.96914 8.25807 6.06 6.66147M9.9 4.84147C10.5883 4.68034 11.2931 4.5998 12 4.60147C19 4.60147 23 12.6015 23 12.6015C22.393 13.7371 21.6691 14.8062 20.84 15.7915M14.12 14.7215C13.8454 15.0162 13.5141 15.2526 13.1462 15.4166C12.7782 15.5806 12.3809 15.6687 11.9781 15.6758C11.5753 15.6829 11.1752 15.6088 10.8016 15.458C10.4281 15.3071 10.0887 15.0825 9.80385 14.7976C9.51897 14.5127 9.29439 14.1734 9.14351 13.7999C8.99262 13.4263 8.91853 13.0262 8.92563 12.6234C8.93274 12.2206 9.02091 11.8233 9.18488 11.4553C9.34884 11.0873 9.58525 10.7561 9.88 10.4815" stroke="black" stroke-width="2" stroke-linecap="round" stroke-linejoin="round"/>
<path d="M1 1.60144L23 23.6014" stroke="black" stroke-width="2" stroke-linecap="round" stroke-linejoin="round"/>
</g>
<defs>
<clipPath id="clip0_5951_2643">
<rect width="24" height="24" fill="white" transform="translate(0 0.60144)"/>
</clipPath>
</defs>
</svg>
