<svg width="24" height="24" viewBox="0 0 24 24" fill="none" xmlns="http://www.w3.org/2000/svg">
<path d="M17.133 12.632V10.832C17.1337 9.61541 16.724 8.43419 15.9702 7.47931C15.2163 6.52443 14.1625 5.85173 12.979 5.56998C12.988 5.53507 12.995 5.49968 13 5.46398V3.09998C13 2.83476 12.8946 2.58041 12.7071 2.39287C12.5196 2.20533 12.2652 2.09998 12 2.09998C11.7348 2.09998 11.4804 2.20533 11.2929 2.39287C11.1054 2.58041 11 2.83476 11 3.09998V5.46398C11.005 5.49968 11.012 5.53507 11.021 5.56998C9.83751 5.85173 8.78365 6.52443 8.02984 7.47931C7.27603 8.43419 6.86633 9.61541 6.867 10.832V12.632C6.867 15.018 5 15.614 5 16.807C5 17.4 5 18 5.538 18H18.462C19 18 19 17.4 19 16.807C19 15.614 17.133 15.018 17.133 12.632Z" fill="#FFD500"/>
<path d="M6 5.99998C5.73481 5.99992 5.48049 5.89452 5.293 5.70698L4.293 4.70698C4.11084 4.51837 4.01005 4.26577 4.01233 4.00357C4.0146 3.74138 4.11977 3.49057 4.30518 3.30516C4.49059 3.11975 4.7414 3.01458 5.0036 3.0123C5.2658 3.01002 5.5184 3.11082 5.707 3.29298L6.707 4.29298C6.84681 4.43283 6.94202 4.61099 6.98058 4.80494C7.01915 4.9989 6.99935 5.19993 6.92368 5.38263C6.84801 5.56533 6.71987 5.72149 6.55546 5.83138C6.39105 5.94126 6.19775 5.99993 6 5.99998Z" fill="#FFD500"/>
<path d="M4 9.99998H3C2.73478 9.99998 2.48043 9.89462 2.29289 9.70708C2.10536 9.51955 2 9.26519 2 8.99998C2 8.73476 2.10536 8.48041 2.29289 8.29287C2.48043 8.10533 2.73478 7.99998 3 7.99998H4C4.26522 7.99998 4.51957 8.10533 4.70711 8.29287C4.89464 8.48041 5 8.73476 5 8.99998C5 9.26519 4.89464 9.51955 4.70711 9.70708C4.51957 9.89462 4.26522 9.99998 4 9.99998Z" fill="#FFD500"/>
<path d="M18 5.99998C17.8022 5.99993 17.609 5.94126 17.4445 5.83138C17.2801 5.72149 17.152 5.56533 17.0763 5.38263C17.0007 5.19993 16.9808 4.9989 17.0194 4.80494C17.058 4.61099 17.1532 4.43283 17.293 4.29298L18.293 3.29298C18.3852 3.19747 18.4956 3.12128 18.6176 3.06887C18.7396 3.01647 18.8708 2.98888 19.0036 2.98773C19.1364 2.98657 19.2681 3.01187 19.391 3.06215C19.5138 3.11244 19.6255 3.18669 19.7194 3.28058C19.8133 3.37447 19.8875 3.48613 19.9378 3.60902C19.9881 3.73192 20.0134 3.8636 20.0123 3.99638C20.0111 4.12916 19.9835 4.26038 19.9311 4.38238C19.8787 4.50438 19.8025 4.61473 19.707 4.70698L18.707 5.70698C18.5195 5.89452 18.2652 5.99992 18 5.99998Z" fill="#FFD500"/>
<path d="M21 9.99998H20C19.7348 9.99998 19.4804 9.89462 19.2929 9.70708C19.1054 9.51955 19 9.26519 19 8.99998C19 8.73476 19.1054 8.48041 19.2929 8.29287C19.4804 8.10533 19.7348 7.99998 20 7.99998H21C21.2652 7.99998 21.5196 8.10533 21.7071 8.29287C21.8946 8.48041 22 8.73476 22 8.99998C22 9.26519 21.8946 9.51955 21.7071 9.70708C21.5196 9.89462 21.2652 9.99998 21 9.99998Z" fill="#FFD500"/>
<path d="M8.823 19C9.08828 19.623 9.53089 20.1543 10.0958 20.5277C10.6606 20.9011 11.3228 21.1002 12 21.1002C12.6772 21.1002 13.3394 20.9011 13.9042 20.5277C14.4691 20.1543 14.9117 19.623 15.177 19H8.823Z" fill="#FFD500"/>
</svg>
