<svg width="18" height="18" viewBox="0 0 18 18" fill="none" xmlns="http://www.w3.org/2000/svg">
<g clip-path="url(#clip0_4048_9866)">
<path d="M3 6.805H6.805V3H12V7.19H13V3C13 2.73478 12.8946 2.48043 12.7071 2.29289C12.5196 2.10536 12.2652 2 12 2H5.435L2 5.435V15C2 15.2652 2.10536 15.5196 2.29289 15.7071C2.48043 15.8946 2.73478 16 3 16H12C12.2652 16 12.5196 15.8946 12.7071 15.7071C12.8946 15.5196 13 15.2652 13 15H3V6.805ZM3 5.845L5.845 3H6V6H3V5.845Z" fill="#5A5A5A"/>
<path d="M14.16 8.17498C14.0643 8.09306 13.9413 8.05026 13.8155 8.05512C13.6896 8.05998 13.5703 8.11215 13.4812 8.2012C13.3922 8.29024 13.34 8.40961 13.3351 8.53545C13.3303 8.66129 13.3731 8.78433 13.455 8.87998L15.08 10.5H9C8.86739 10.5 8.74021 10.5527 8.64645 10.6464C8.55268 10.7402 8.5 10.8674 8.5 11C8.5 11.1326 8.55268 11.2598 8.64645 11.3535C8.74021 11.4473 8.86739 11.5 9 11.5H15.095L13.455 13.14C13.4027 13.1848 13.3601 13.24 13.3301 13.302C13.3001 13.364 13.2833 13.4316 13.2806 13.5005C13.2779 13.5693 13.2895 13.638 13.3147 13.7021C13.3398 13.7663 13.3779 13.8246 13.4267 13.8733C13.4754 13.922 13.5337 13.9602 13.5978 13.9853C13.662 14.0104 13.7307 14.022 13.7995 14.0194C13.8684 14.0167 13.936 13.9999 13.998 13.9698C14.06 13.9398 14.1152 13.8973 14.16 13.845L17 11L14.16 8.17498Z" fill="#5A5A5A"/>
</g>
<defs>
<clipPath id="clip0_4048_9866">
<rect width="18" height="18" fill="white"/>
</clipPath>
</defs>
</svg>
